<svg width="20" height="18" viewBox="0 0 20 18" fill="none" xmlns="http://www.w3.org/2000/svg">
<g clip-path="url(#clip0_1128_811)">
<path d="M20.0008 3.68356H14.3843V1.56339H15.723C16.1055 1.56339 16.4175 1.23144 16.4175 0.824544V0.749588C16.4175 0.342687 16.1055 0.0107422 15.723 0.0107422H11.7874C11.4049 0.0107422 11.0929 0.342687 11.0929 0.749588V0.824544C11.0929 1.23144 11.4049 1.56339 11.7874 1.56339H13.1261V3.68356H7.62032C7.62032 3.68356 3.39284 7.55982 1.64145 9.58362C-0.10993 11.6074 -0.935295 14.4557 1.64145 16.9935C4.2182 19.5313 7.23783 16.4795 7.23783 16.4795L11.2841 12.3891C11.2841 12.3891 14.2132 13.5134 17.0214 12.6996C20.6651 11.6395 19.1352 7.46345 19.1352 7.46345L20.0008 7.11009V3.69426V3.68356ZM17.9575 11.2219C17.0416 12.2285 15.6928 12.4212 14.9278 11.6502L18.2293 7.98814C18.9942 8.76981 18.8634 10.2154 17.9575 11.2219Z" fill="#7D7D7D"/>
</g>
<defs>
<clipPath id="clip0_1128_811">
<rect width="20" height="18" fill="white"/>
</clipPath>
</defs>
</svg>
